# xmcd CD database file
#
# Track frame offsets:
#	150
#	12735
#	36037
#	75543
#	121039
#	125467
#	148185
#	162439
#	173306
#	191629
#	213440
#	228583
#	244703
#	246568
#	259171
#	273911
#	287156
#	304655
#
# Disc length: 4401 seconds
#
# Revision: 1
# Processed by: cddbd v1.5.1PL0 Copyright (c) Steve Scherf et al.
# Submitted via: CDex 1.51
#
DISCID=01112f12
DTITLE=DJ JIN - In The Mood - Blue Note Mix By DJ JIN
DYEAR=2004
DGENRE=Jazz
TTITLE0=Marlena Shaw - Last Tango In Paris
TTITLE1=Bobby Hutcherson - Maiden Voyage
TTITLE2=Herbie Hancock - Dolphine Dance
TTITLE3=Grant Green - My Favorite Things
TTITLE4=Ronnie Laws - Piano Interlude
TTITLE5=Bobby Hutcherson - Little B's Poem
TTITLE6=Horace Silver - Song For My Father
TTITLE7=Kenny Dorham - Una Mas (One More Time)
TTITLE8=Duke Peason - Congalegre
TTITLE9=John Patton - Jakey
TTITLE10=Elvin Jones - 'Round Town
TTITLE11=Gene Harris - Koko And Lee Roe
TTITLE12=Waters -  Stuh-born People (Interlude)
TTITLE13=Moacir Santos - Luanne
TTITLE14=Duke Peason - Stormy
TTITLE15=Duke Peason - Sandalia Dela
TTITLE16=Alphoneze Mouzon - You Don't Know How Much I Love You
TTITLE17=Donald Byrd - Wind Parade
EXTD=YEAR: 2004
EXTT0=
EXTT1=
EXTT2=
EXTT3=
EXTT4=
EXTT5=
EXTT6=
EXTT7=
EXTT8=
EXTT9=
EXTT10=
EXTT11=
EXTT12=
EXTT13=
EXTT14=
EXTT15=
EXTT16=
EXTT17=
PLAYORDER=
